<svg xmlns="http://www.w3.org/2000/svg" xmlns:xlink="http://www.w3.org/1999/xlink" width="218" zoomAndPan="magnify" viewBox="0 0 163.5 68.999997" height="92" preserveAspectRatio="xMidYMid meet" version="1.0"><defs><g/><clipPath id="d560678f50"><path d="M 0.046875 4.003906 L 13.308594 4.003906 L 13.308594 17.265625 L 0.046875 17.265625 Z M 0.046875 4.003906 " clip-rule="nonzero"/></clipPath><clipPath id="675d288660"><path d="M 0.0234375 25.203125 L 13.285156 25.203125 L 13.285156 38.464844 L 0.0234375 38.464844 Z M 0.0234375 25.203125 " clip-rule="nonzero"/></clipPath><clipPath id="3b32536bb7"><path d="M 0 46.203125 L 13.261719 46.203125 L 13.261719 59.464844 L 0 59.464844 Z M 0 46.203125 " clip-rule="nonzero"/></clipPath><clipPath id="74149ac633"><path d="M 21.816406 4.003906 L 35.078125 4.003906 L 35.078125 17.265625 L 21.816406 17.265625 Z M 21.816406 4.003906 " clip-rule="nonzero"/></clipPath><clipPath id="644d238d5e"><path d="M 21.792969 25.203125 L 35.054688 25.203125 L 35.054688 38.464844 L 21.792969 38.464844 Z M 21.792969 25.203125 " clip-rule="nonzero"/></clipPath><clipPath id="e893293c4a"><path d="M 21.769531 46.203125 L 35.03125 46.203125 L 35.03125 59.464844 L 21.769531 59.464844 Z M 21.769531 46.203125 " clip-rule="nonzero"/></clipPath><clipPath id="5622aceda0"><path d="M 43.632812 4.003906 L 154.023438 4.003906 L 154.023438 17.265625 L 43.632812 17.265625 Z M 43.632812 4.003906 " clip-rule="nonzero"/></clipPath><clipPath id="d960932efa"><path d="M 43.609375 25.203125 L 56.871094 25.203125 L 56.871094 38.464844 L 43.609375 38.464844 Z M 43.609375 25.203125 " clip-rule="nonzero"/></clipPath><clipPath id="5564b6c460"><path d="M 43.585938 46.203125 L 56.847656 46.203125 L 56.847656 59.464844 L 43.585938 59.464844 Z M 43.585938 46.203125 " clip-rule="nonzero"/></clipPath></defs><g clip-path="url(#d560678f50)"><path fill="#000000" d="M 0.046875 4.003906 L 13.308594 4.003906 L 13.308594 17.265625 L 0.046875 17.265625 Z M 0.046875 4.003906 " fill-opacity="1" fill-rule="nonzero"/></g><g clip-path="url(#675d288660)"><path fill="#000000" d="M 0.0234375 25.203125 L 13.285156 25.203125 L 13.285156 38.464844 L 0.0234375 38.464844 Z M 0.0234375 25.203125 " fill-opacity="1" fill-rule="nonzero"/></g><g clip-path="url(#3b32536bb7)"><path fill="#000000" d="M 0 46.203125 L 13.261719 46.203125 L 13.261719 59.464844 L 0 59.464844 Z M 0 46.203125 " fill-opacity="1" fill-rule="nonzero"/></g><g clip-path="url(#74149ac633)"><path fill="#000000" d="M 21.816406 4.003906 L 35.078125 4.003906 L 35.078125 17.265625 L 21.816406 17.265625 Z M 21.816406 4.003906 " fill-opacity="1" fill-rule="nonzero"/></g><g clip-path="url(#644d238d5e)"><path fill="#000000" d="M 21.792969 25.203125 L 35.054688 25.203125 L 35.054688 38.464844 L 21.792969 38.464844 Z M 21.792969 25.203125 " fill-opacity="1" fill-rule="nonzero"/></g><g clip-path="url(#e893293c4a)"><path fill="#000000" d="M 21.769531 46.203125 L 35.03125 46.203125 L 35.03125 59.464844 L 21.769531 59.464844 Z M 21.769531 46.203125 " fill-opacity="1" fill-rule="nonzero"/></g><g clip-path="url(#5622aceda0)"><path fill="#000000" d="M 43.632812 4.003906 L 154.027344 4.003906 L 154.027344 17.265625 L 43.632812 17.265625 Z M 43.632812 4.003906 " fill-opacity="1" fill-rule="nonzero"/></g><g clip-path="url(#d960932efa)"><path fill="#000000" d="M 43.609375 25.203125 L 56.871094 25.203125 L 56.871094 38.464844 L 43.609375 38.464844 Z M 43.609375 25.203125 " fill-opacity="1" fill-rule="nonzero"/></g><g clip-path="url(#5564b6c460)"><path fill="#000000" d="M 43.585938 46.203125 L 56.847656 46.203125 L 56.847656 59.464844 L 43.585938 59.464844 Z M 43.585938 46.203125 " fill-opacity="1" fill-rule="nonzero"/></g><g fill="#000000" fill-opacity="1"><g transform="translate(61.060017, 55.248975)"><g><path d="M 30.78125 -8.296875 L 37.3125 -8.296875 L 37.3125 -34 C 37.3125 -34.171875 37.140625 -34.390625 36.84375 -34.390625 L 31.15625 -34.390625 C 30.984375 -34.390625 30.78125 -34.265625 30.6875 -34.125 L 18.953125 -8.9375 L 6.625 -34.125 C 6.578125 -34.265625 6.3125 -34.390625 6.1875 -34.390625 L 0.4375 -34.390625 C 0.125 -34.390625 0 -34.171875 0 -34 L 0 -0.390625 C 0 -0.21875 0.125 0 0.4375 0 L 6.109375 0 C 6.359375 0 6.578125 -0.21875 6.578125 -0.390625 L 6.578125 -19.6875 L 15.90625 -1.640625 C 15.953125 -1.5 16.203125 -1.375 16.328125 -1.375 L 21.625 -1.375 C 21.75 -1.375 21.96875 -1.5 22.015625 -1.640625 L 30.78125 -19.21875 Z M 30.78125 -8.296875 "/></g></g></g><g fill="#000000" fill-opacity="1"><g transform="translate(100.259464, 55.248975)"><g><path d="M 16.765625 -24.15625 C 16.765625 -20.375 11.6875 -20.375 11.6875 -20.375 L 6.53125 -20.375 L 6.53125 -28.234375 L 11.6875 -28.234375 C 11.6875 -28.234375 16.765625 -28.28125 16.765625 -24.15625 Z M 23.34375 -24.546875 C 23.34375 -34.640625 11.6875 -34.390625 11.6875 -34.390625 L 0.46875 -34.390625 C 0.21875 -34.390625 0 -34.171875 0 -34 L 0 -13.96875 L 11.6875 -13.96875 C 11.6875 -13.96875 17.234375 -14.234375 17.234375 -10.1875 C 17.234375 -6.875 13.84375 -6.28125 11.6875 -6.28125 L 6.578125 -6.28125 L 6.578125 0 L 11.6875 0 C 14.015625 0 23.8125 -0.4375 23.8125 -10.015625 C 23.8125 -10.015625 24.03125 -15.34375 18.5625 -17.1875 C 21.1875 -18.265625 23.34375 -20.546875 23.34375 -24.546875 Z M 23.34375 -24.546875 "/></g></g></g><g fill="#000000" fill-opacity="1"><g transform="translate(125.274901, 55.248975)"><g><path d="M 11.5625 -34.390625 L 0.4375 -34.390625 C 0.21875 -34.390625 0 -34.171875 0 -34 L 0 -28.0625 L 11.5625 -28.0625 C 12.34375 -28.0625 16.640625 -27.859375 16.640625 -24.078125 C 16.640625 -20.28125 12.421875 -20.203125 11.5625 -20.203125 L 0 -20.203125 L 0 -0.390625 C 0 -0.21875 0.21875 0 0.4375 0 L 6.015625 0 C 6.3125 0 6.453125 -0.21875 6.453125 -0.390625 L 6.453125 -13.84375 L 11.5625 -13.84375 C 12.375 -13.84375 23.171875 -13.96875 23.171875 -24.078125 C 23.171875 -34.171875 12.9375 -34.390625 11.5625 -34.390625 Z M 11.5625 -34.390625 "/></g></g></g></svg>